<svg height="512pt" viewBox="0 0 512 512" width="512pt" xmlns="http://www.w3.org/2000/svg"><path d="m512 256c0 141.386719-114.613281 256-256 256s-256-114.613281-256-256 114.613281-256 256-256 256 114.613281 256 256zm0 0" fill="#f05e3a"/><path d="m510.164062 286.675781-229.300781-229.296875-63.308593 234.171875-68.554688-68.550781-70 118 170.921875 170.921875c2.019531.046875 4.046875.078125 6.078125.078125 131.003906 0 239.003906-98.402344 254.164062-225.324219zm0 0" fill="#d9351c"/><path d="m432.5 373h-69v-31.894531c0-13.566407-11.035156-24.605469-24.605469-24.605469h-198.894531v-69h198.894531c51.613281 0 93.605469 41.988281 93.605469 93.605469zm0 0" fill="#ffce00"/><path d="m338.894531 247.5h-83.300781v69h83.300781c13.566407 0 24.605469 11.035156 24.605469 24.605469v31.894531h69v-31.894531c0-51.617188-41.988281-93.605469-93.605469-93.605469zm0 0" fill="#ffa300"/><path d="m275.921875 270h-59.847656l-18.296875-173.851562c-3.015625-28.628907 19.433594-53.566407 48.222656-53.566407 28.785156 0 51.234375 24.9375 48.222656 53.566407zm0 0" fill="#966857"/><path d="m255.59375 43.542969v226.457031h20.328125l18.300781-173.851562c2.667969-25.355469-14.636718-47.796876-38.628906-52.605469zm0 0" fill="#805142"/><path d="m305 282c0 32.585938-26.414062 59-59 59s-59-26.414062-59-59 26.414062-59 59-59 59 26.414062 59 59zm0 0" fill="#ffb000"/><path d="m305 282c0-29.316406-21.386719-53.625-49.40625-58.210938v116.421876c28.019531-4.585938 49.40625-28.894532 49.40625-58.210938zm0 0" fill="#ff9500"/><path d="m79 223h70v118h-70zm0 0" fill="#ffb000"/></svg>